HIERARCHY
ROOT Hips
{
	OFFSET 0.000000 0.000000 0.000000
	CHANNELS 6 Xposition Yposition Zposition Zrotation Yrotation Xrotation 
	JOINT LowerBack
	{
		OFFSET 0.000000 0.000000 0.000000
		CHANNELS 3 Zrotation Yrotation Xrotation
		JOINT Spine
		{
			OFFSET 0.028270 2.035590 -0.193380
			CHANNELS 3 Zrotation Yrotation Xrotation
			JOINT Spine1
			{
				OFFSET 0.056720 2.048850 -0.042750
				CHANNELS 3 Zrotation Yrotation Xrotation
				JOINT Neck
				{
					OFFSET 0.000000 0.000000 0.000000
					CHANNELS 3 Zrotation Yrotation Xrotation
					JOINT Neck1
					{
						OFFSET -0.054170 1.746240 0.172020
						CHANNELS 3 Zrotation Yrotation Xrotation
						JOINT Head
						{
							OFFSET 0.104070 1.761360 -0.123970
							CHANNELS 3 Zrotation Yrotation Xrotation
							End Site
							{
								OFFSET 0.000000 0.000000 0.000000
							}
						}
					}
				}
				JOINT LeftShoulder
				{
					OFFSET 0.000000 0.000000 0.000000
					CHANNELS 3 Zrotation Yrotation Xrotation
					JOINT LeftArm
					{
						OFFSET 3.362410 1.200890 -0.311210
						CHANNELS 3 Zrotation Yrotation Xrotation
						JOINT LeftForeArm
						{
							OFFSET 4.983000 -0.000000 -0.000000
							CHANNELS 3 Zrotation Yrotation Xrotation
							JOINT LeftHand
							{
								OFFSET 3.483560 -0.000000 -0.000000
								CHANNELS 3 Zrotation Yrotation Xrotation
								JOINT LeftFingerBase
								{
									OFFSET 0.000000 0.000000 0.000000
									CHANNELS 3 Zrotation Yrotation Xrotation
									JOINT LeftHandIndex1
									{
										OFFSET 0.715260 -0.000000 -0.000000
										CHANNELS 3 Zrotation Yrotation Xrotation
										End Site
										{
											OFFSET 0.000000 0.000000 0.000000
										}
									}
								}
								JOINT LThumb
								{
									OFFSET 0.000000 0.000000 0.000000
									CHANNELS 3 Zrotation Yrotation Xrotation
									End Site
									{
										OFFSET 0.000000 0.000000 0.000000
									}
								}
							}
						}
					}
				}
				JOINT RightShoulder
				{
					OFFSET 0.000000 0.000000 0.000000
					CHANNELS 3 Zrotation Yrotation Xrotation
					JOINT RightArm
					{
						OFFSET -3.136600 1.374050 -0.404650
						CHANNELS 3 Zrotation Yrotation Xrotation
						JOINT RightForeArm
						{
							OFFSET -5.241900 -0.000000 -0.000000
							CHANNELS 3 Zrotation Yrotation Xrotation
							JOINT RightHand
							{
								OFFSET -3.444170 -0.000000 -0.000000
								CHANNELS 3 Zrotation Yrotation Xrotation
								JOINT RightFingerBase
								{
									OFFSET 0.000000 0.000000 0.000000
									CHANNELS 3 Zrotation Yrotation Xrotation
									JOINT RightHandIndex1
									{
										OFFSET -0.622530 -0.000000 -0.000000
										CHANNELS 3 Zrotation Yrotation Xrotation
										End Site
										{
											OFFSET 0.000000 0.000000 0.000000
										}
									}
								}
								JOINT RThumb
								{
									OFFSET 0.000000 0.000000 0.000000
									CHANNELS 3 Zrotation Yrotation Xrotation
									End Site
									{
										OFFSET 0.000000 0.000000 0.000000
									}
								}
							}
						}
					}
				}
			}
		}
	}
}
}
MOTION
Frames: 17
Frame Time: 0.008333
-11.609772 16.862018 -0.679044 -18.181637 80.308053 -6.590857 9.226663 -4.940916 -8.602490 1.813130 -6.130961 -4.319025 -5.454043 -6.169944 1.506988 7.844649 -19.302876 -9.726533 -3.082183 -0.224309 -0.459198 0.000000 0.000000 0.000000 -7.461731 3.521092 1.332256 -58.630818 -12.051492 8.868115 -2.852151 -43.008302 -0.010672 5.372851 -1.345914 -0.071331 -0.111919 0.173332 0.000000 0.000000 0.000000 0.000000 0.000000 0.000000 0.000000 13.916074 -18.236240 0.006851 63.427110 -13.135749 1.089610 2.754602 44.740688 0.007072 1.051690 3.155162 0.027451 0.090499 -0.054096 -0.000000 0.000000 0.000000 0.000000 0.000000 0.000000 0.000000 
-11.440972 16.881023 -0.672100 -20.921574 79.939421 -9.391757 9.794030 -4.896642 -8.559565 1.932619 -6.151763 -4.322013 -5.442047 -6.191062 1.476621 7.829970 -19.226049 -9.704019 -3.094966 -0.226155 -0.454085 0.000000 0.000000 0.000000 -7.519859 3.557734 1.292756 -59.507082 -11.568236 8.530835 -2.854052 -42.361883 -0.010567 5.429956 -1.440991 -0.076585 -0.109005 0.170461 0.000000 0.000000 0.000000 0.000000 0.000000 0.000000 0.000000 13.905435 -18.159717 -0.008629 63.162134 -12.938291 1.064653 2.755292 44.776397 0.007033 1.013583 3.149173 0.026351 0.090691 -0.053987 -0.000000 0.000000 0.000000 0.000000 0.000000 0.000000 0.000000 
-11.274542 16.901843 -0.662387 -23.082916 79.577438 -11.631445 10.248460 -4.863643 -8.492429 2.025727 -6.169273 -4.318233 -5.435643 -6.208837 1.447611 7.852431 -19.137729 -9.677778 -3.109184 -0.228097 -0.447744 0.000000 0.000000 0.000000 -7.476918 3.578618 1.250229 -60.427747 -11.044583 8.190497 -2.851979 -41.671942 -0.010441 5.464567 -1.502141 -0.079843 -0.105890 0.167212 0.000000 0.000000 0.000000 0.000000 0.000000 0.000000 0.000000 13.940725 -18.073318 -0.024990 62.943507 -12.705635 1.037800 2.754644 44.787205 0.006974 0.959048 3.136787 0.024750 0.090953 -0.053974 -0.000000 0.000000 0.000000 0.000000 0.000000 0.000000 0.000000 
-11.110749 16.924042 -0.649438 -24.726367 79.240995 -13.368236 10.582223 -4.842942 -8.405075 2.090698 -6.183982 -4.308127 -5.436394 -6.223779 1.420808 7.915838 -19.045669 -9.649830 -3.125011 -0.230130 -0.440559 0.000000 0.000000 0.000000 -7.333578 3.580196 1.205887 -61.374818 -10.482359 7.858236 -2.846460 -40.952908 -0.010287 5.469738 -1.520952 -0.080705 -0.102619 0.163597 0.000000 0.000000 0.000000 0.000000 0.000000 0.000000 0.000000 14.028818 -17.984401 -0.042553 62.771493 -12.441871 1.018169 2.752163 44.783746 0.006902 0.889377 3.119486 0.022649 0.091279 -0.054079 -0.000000 0.000000 0.000000 0.000000 0.000000 0.000000 0.000000 
-10.949776 16.947149 -0.633148 -25.941934 78.946652 -14.690799 10.796527 -4.835167 -8.300104 2.127897 -6.196940 -4.292328 -5.445333 -6.236984 1.395870 8.020271 -18.957683 -9.621311 -3.142579 -0.232259 -0.432744 0.000000 0.000000 0.000000 -7.097573 3.553016 1.161050 -62.329818 -9.875965 7.540740 -2.837875 -40.227294 -0.010092 5.438747 -1.490812 -0.078569 -0.099215 0.159629 0.000000 0.000000 0.000000 0.000000 0.000000 0.000000 0.000000 14.171142 -17.901039 -0.060707 62.645767 -12.149549 1.014613 2.747615 44.773747 0.006821 0.805964 3.100744 0.020251 0.091663 -0.054326 -0.000000 0.000000 0.000000 0.000000 0.000000 0.000000 0.000000 
-10.791758 16.970635 -0.613847 -26.858733 78.705258 -15.730344 10.906532 -4.840295 -8.175016 2.140751 -6.209678 -4.270505 -5.463289 -6.250022 1.373282 8.162716 -18.875613 -9.594303 -3.161864 -0.234449 -0.424948 0.000000 0.000000 0.000000 -6.785287 3.504832 1.118023 -63.274509 -9.244555 7.257339 -2.827922 -39.505293 -0.009855 5.369652 -1.410029 -0.073532 -0.095820 0.155399 0.000000 0.000000 0.000000 0.000000 0.000000 0.000000 0.000000 14.365116 -17.824768 -0.079830 62.565837 -11.833010 1.028721 2.740675 44.766425 0.006739 0.712352 3.085324 0.017553 0.092047 -0.054750 -0.000000 0.000000 0.000000 0.000000 0.000000 0.000000 0.000000 
-10.636513 16.994119 -0.591405 -27.500037 78.524424 -16.503239 10.910650 -4.856499 -8.039580 2.129194 -6.221194 -4.244614 -5.490265 -6.261900 1.352776 8.340763 -18.809121 -9.569705 -3.182881 -0.236714 -0.417318 0.000000 0.000000 0.000000 -6.409103 3.425858 1.076529 -64.191001 -8.575222 7.013398 -2.816783 -38.814945 -0.009560 5.260248 -1.278945 -0.065693 -0.092438 0.150865 0.000000 0.000000 0.000000 0.000000 0.000000 0.000000 0.000000 14.609276 -17.764623 -0.098915 62.528834 -11.492764 1.071508 2.731637 44.762871 0.006666 0.609066 3.078304 0.014657 0.092460 -0.055374 -0.000000 0.000000 0.000000 0.000000 0.000000 0.000000 0.000000 
-10.484017 17.017121 -0.566501 -27.982971 78.404248 -17.130204 10.832620 -4.881935 -7.888723 2.098381 -6.231914 -4.214209 -5.526538 -6.273031 1.333692 8.547315 -18.754116 -9.548234 -3.205791 -0.239050 -0.410252 0.000000 0.000000 0.000000 -5.991256 3.325949 1.038526 -65.064829 -7.886182 6.825121 -2.805863 -38.165667 -0.009213 5.113716 -1.104275 -0.055752 -0.089189 0.146115 0.000000 0.000000 0.000000 0.000000 0.000000 0.000000 0.000000 14.895714 -17.715684 -0.117848 62.534682 -11.135028 1.136337 2.720590 44.767866 0.006609 0.501537 3.084154 0.011763 0.092829 -0.056229 -0.000000 0.000000 0.000000 0.000000 0.000000 0.000000 0.000000 
-10.333999 17.039347 -0.539447 -28.341788 78.342378 -17.641468 10.683168 -4.913437 -7.727294 2.050875 -6.240364 -4.180406 -5.571176 -6.281906 1.316090 8.775800 -18.716517 -9.531042 -3.230151 -0.241420 -0.404119 0.000000 0.000000 0.000000 -5.550664 3.205285 1.003620 -65.882955 -7.175627 6.698186 -2.795356 -37.576437 -0.008810 4.934233 -0.894922 -0.044404 -0.086092 0.141148 0.000000 0.000000 0.000000 0.000000 0.000000 0.000000 0.000000 15.216212 -17.683141 -0.135622 62.580898 -10.755997 1.230386 2.708234 44.775055 0.006576 0.389591 3.107161 0.008769 0.093184 -0.057326 -0.000000 0.000000 0.000000 0.000000 0.000000 0.000000 0.000000 
-10.186198 17.060530 -0.510790 -28.631046 78.332343 -18.090733 10.480018 -4.947784 -7.555159 1.990596 -6.245292 -4.143463 -5.623336 -6.287220 1.300058 9.018532 -18.695287 -9.518967 -3.255619 -0.243785 -0.399298 0.000000 0.000000 0.000000 -5.107540 3.073546 0.972037 -66.636217 -6.453455 6.640442 -2.785713 -37.055771 -0.008361 4.729343 -0.664439 -0.032653 -0.083203 0.136012 0.000000 0.000000 0.000000 0.000000 0.000000 0.000000 0.000000 15.560915 -17.664937 -0.151765 62.666495 -10.353847 1.352994 2.695186 44.778894 0.006571 0.274828 3.149819 0.005677 0.093523 -0.058673 -0.000000 0.000000 0.000000 0.000000 0.000000 0.000000 0.000000 
-10.040346 17.080515 -0.481054 -28.877595 78.365499 -18.503206 10.237555 -4.981490 -7.374662 1.920388 -6.245037 -4.104826 -5.683096 -6.287255 1.282591 9.266820 -18.669414 -9.507600 -3.283500 -0.246310 -0.394702 0.000000 0.000000 0.000000 -4.677953 2.939442 0.945139 -67.319273 -5.725166 6.653968 -2.777168 -36.606871 -0.007876 4.510410 -0.431063 -0.021597 -0.080556 0.130771 0.000000 0.000000 0.000000 0.000000 0.000000 0.000000 0.000000 15.921378 -17.637253 -0.166267 62.795416 -9.954668 1.475588 2.681741 44.786390 0.006597 0.171006 3.210234 0.002786 0.093706 -0.060263 -0.000000 0.000000 0.000000 0.000000 0.000000 0.000000 0.000000 
-9.896355 17.099173 -0.450708 -29.132035 78.430637 -18.929100 9.973530 -5.011064 -7.182645 1.844350 -6.237662 -4.063319 -5.748270 -6.279984 1.267321 9.515726 -18.661425 -9.502977 -3.311436 -0.248724 -0.392139 0.000000 0.000000 0.000000 -4.277889 2.809609 0.920764 -67.927660 -4.999597 6.737439 -2.769000 -36.235817 -0.007371 4.285431 -0.204368 -0.011736 -0.078152 0.125450 0.000000 0.000000 0.000000 0.000000 0.000000 0.000000 0.000000 16.287275 -17.623916 -0.177620 62.961731 -9.520007 1.629583 2.669104 44.771826 0.006643 0.063221 3.286146 -0.000303 0.093928 -0.062056 -0.000000 0.000000 0.000000 0.000000 0.000000 0.000000 0.000000 
-9.754012 17.116498 -0.420027 -29.392143 78.518700 -19.360377 9.695438 -5.033413 -6.984354 1.764306 -6.221344 -4.019630 -5.817351 -6.263541 1.256419 9.760535 -18.670867 -9.506788 -3.338674 -0.250951 -0.392143 0.000000 0.000000 0.000000 -3.918853 2.702395 0.898035 -68.461005 -4.293362 6.892810 -2.761340 -35.933805 -0.006864 4.067352 0.000206 -0.003471 -0.076045 0.120114 0.000000 0.000000 0.000000 0.000000 0.000000 0.000000 0.000000 16.651985 -17.623411 -0.186411 63.162921 -9.043485 1.820781 2.657832 44.724669 0.006704 -0.052072 3.375592 -0.003793 0.094242 -0.064016 -0.000000 0.000000 0.000000 0.000000 0.000000 0.000000 0.000000 
-9.613102 17.132601 -0.389314 -29.625590 78.622628 -19.760276 9.405054 -5.045964 -6.786827 1.680121 -6.194366 -3.976889 -5.891273 -6.236222 1.243062 9.994195 -18.657092 -9.507686 -3.368086 -0.253371 -0.391605 0.000000 0.000000 0.000000 -3.603557 2.614910 0.879246 -68.922680 -3.593199 7.099513 -2.753562 -35.700667 -0.006367 3.869416 0.166510 0.002601 -0.074190 0.114809 0.000000 0.000000 0.000000 0.000000 0.000000 0.000000 0.000000 17.010116 -17.591188 -0.192509 63.408702 -8.576345 1.994254 2.647765 44.664444 0.006773 -0.148550 3.467912 -0.006881 0.094373 -0.066102 -0.000000 0.000000 0.000000 0.000000 0.000000 0.000000 0.000000 
-9.473591 17.147613 -0.358727 -29.817245 78.735498 -20.110648 9.105082 -5.047160 -6.592312 1.592721 -6.155644 -3.935105 -5.968259 -6.196963 1.229503 10.214530 -18.625777 -9.507686 -3.398398 -0.255852 -0.391134 0.000000 0.000000 0.000000 -3.336537 2.556905 0.863265 -69.316689 -2.908333 7.346946 -2.745410 -35.526918 -0.005896 3.701115 0.288185 0.006673 -0.072598 0.109579 0.000000 0.000000 0.000000 0.000000 0.000000 0.000000 0.000000 17.356298 -17.533181 -0.195884 63.696143 -8.102285 2.162584 2.639420 44.578382 0.006841 -0.230345 3.557163 -0.009669 0.094386 -0.068255 -0.000000 0.000000 0.000000 0.000000 0.000000 0.000000 0.000000 
-9.335431 17.161708 -0.328084 -29.953803 78.856492 -20.385990 8.792656 -5.035648 -6.409755 1.502428 -6.104316 -3.893622 -6.045402 -6.144897 1.225620 10.426806 -18.611169 -9.518659 -3.426280 -0.257987 -0.393978 0.000000 0.000000 0.000000 -3.117287 2.556391 0.846175 -69.647234 -2.273207 7.644326 -2.737596 -35.388420 -0.005465 3.570240 0.366262 0.009049 -0.071376 0.104453 0.000000 0.000000 0.000000 0.000000 0.000000 0.000000 0.000000 17.693551 -17.485654 -0.198508 64.010424 -7.571193 2.387504 2.632904 44.440738 0.006890 -0.330908 3.643109 -0.013157 0.094631 -0.070415 -0.000000 0.000000 0.000000 0.000000 0.000000 0.000000 0.000000 
-9.198689 17.175067 -0.297551 -29.993711 78.984250 -20.545564 8.463198 -5.011226 -6.242309 1.407544 -6.040062 -3.855792 -6.124902 -6.079824 1.219897 10.626099 -18.562515 -9.523585 -3.455908 -0.260330 -0.395437 0.000000 0.000000 0.000000 -2.937995 2.586539 0.831676 -69.923895 -1.651156 7.948695 -2.729052 -35.291702 -0.005075 3.481936 0.398238 0.010028 -0.070381 0.099428 0.000000 0.000000 0.000000 0.000000 0.000000 0.000000 0.000000 18.019487 -17.394364 -0.199087 64.364709 -7.050700 2.594007 2.627585 44.286055 0.006918 -0.409073 3.710186 -0.015944 0.094671 -0.072542 -0.000000 0.000000 0.000000 0.000000 0.000000 0.000000 0.000000 
